<?xml version="1.0" encoding="UTF-8"?>
<svg width="1200pt" height="1200pt" version="1.1" viewBox="0 0 1200 1200" xmlns="http://www.w3.org/2000/svg">
 <path fill="white" d="m1176.7 778.45c-13.738 40.141-57.395 61.535-97.535 47.797-31.332-10.727-51.254-39.707-51.926-71.004l-247.49-80.605c-25.668 52.152-73.547 91.367-131.29 105.34l29.09 263.8c30.023 7.3672 53.832 32.543 57.91 65.039 5.2695 42.086-24.562 80.484-66.648 85.754-42.086 5.2695-80.484-24.562-85.766-66.648-4.1758-33.289 13.633-64.246 42.086-78.359l-29.125-264.12c-66.793-1.8711-125.32-36.719-159.86-88.871l-202.51 96.816c12.625 52.895-12.648 109.3-63.613 133.97-58.859 28.477-129.67 3.8398-158.15-55.02-28.473-58.863-3.8359-129.64 55.023-158.12 50.438-24.395 109.61-9.7812 143.44 31.906l202.84-96.973c-18.395-56.004-19.188-123.82 37.211-190.25l-189.85-213.83c-30.312 12.91-66.719 5.1953-88.969-21.383-27.227-32.531-22.934-80.965 9.6016-108.19 32.52-27.227 80.965-22.922 108.18 9.6016 20.305 24.254 23.062 57.359 9.6719 83.914l190.49 214.54c76.332-52.414 171.82-42.254 235.38 8.2188l255.39-247.4c-27.887-46.102-21.441-106.94 18.879-146.09 46.895-45.562 121.85-44.473 167.41 2.4375 45.562 46.906 44.473 121.86-2.4375 167.43-40.5 39.336-101.89 43.871-147.25 14.172l-255.38 247.39c43.766 59.461 43.488 110.38 34.969 154.96l247.8 80.699c19.691-24.395 53.258-35.16 84.648-24.422 40.125 13.73 61.52 57.387 47.793 97.516z"/>
</svg>
